<?xml version="1.0" encoding="UTF-8"?>
<svg id="Layer_2" data-name="Layer 2" xmlns="http://www.w3.org/2000/svg" viewBox="0 0 128 128">
  <defs>
    <style>
      .cls-1b {
        fill: none;
        stroke: #000;
        stroke-miterlimit: 10;
        stroke-width: 16px;
      }
    </style>
  </defs>
  <g id="Layer_1-2" data-name="Layer 1">
    <path d="m64,16c26.47,0,48,21.53,48,48s-21.53,48-48,48-48-21.53-48-48S37.53,16,64,16m0-16C28.65,0,0,28.65,0,64s28.65,64,64,64,64-28.65,64-64S99.34,0,64,0h0Z"/>
    <line class="cls-1b" x1="16.16" y1="46.01" x2="111.84" y2="46.01"/>
    <line class="cls-1b" x1="15.82" y1="83.26" x2="112.17" y2="83.26"/>
    <path d="m63.87,16.89c1.57,1.73,4.08,5.47,6.44,12.25,3.37,9.67,5.22,22.05,5.22,34.86s-1.85,25.19-5.22,34.86c-2.36,6.78-4.88,10.52-6.44,12.25-1.57-1.73-4.08-5.47-6.44-12.25-3.37-9.67-5.22-22.05-5.22-34.86s1.85-25.19,5.22-34.86c2.36-6.78,4.88-10.52,6.44-12.25m0-16.89c-15.28,0-27.66,28.65-27.66,64s12.38,64,27.66,64,27.66-28.65,27.66-64S79.15,0,63.87,0h0Z"/>
  </g>
</svg>